<?xml version="1.0" encoding="UTF-8"?>
<svg xmlns="http://www.w3.org/2000/svg" xmlns:xlink="http://www.w3.org/1999/xlink"
     width="800" height="551.6054421768707" viewBox="0 -551.6054421768707 800 551.6054421768707">
<defs>
<clipPath id="d0">
<rect x="20" y="-536.6054421768707" width="126.66666666666666" height="5" />
</clipPath>
<clipPath id="d1">
<rect x="146.66666666666666" y="-536.6054421768707" width="126.66666666666666" height="5" />
</clipPath>
<clipPath id="d2">
<rect x="273.3333333333333" y="-536.6054421768707" width="126.66666666666666" height="5" />
</clipPath>
<clipPath id="d3">
<rect x="400.0" y="-536.6054421768707" width="126.66666666666666" height="5" />
</clipPath>
<clipPath id="d4">
<rect x="526.6666666666666" y="-536.6054421768707" width="126.66666666666666" height="5" />
</clipPath>
<clipPath id="d5">
<rect x="653.3333333333334" y="-536.6054421768707" width="126.66666666666666" height="5" />
</clipPath>
<clipPath id="d6">
<rect x="20" y="-531.6054421768707" width="110.83333333333333" height="32.85714285714286" />
</clipPath>
<clipPath id="d7">
<rect x="20" y="-502.7482993197279" width="110.83333333333333" height="21.42857142857143" />
</clipPath>
<clipPath id="d8">
<rect x="20" y="-485.3197278911564" width="110.83333333333333" height="18.57142857142857" />
</clipPath>
<clipPath id="d9">
<rect x="20" y="-470.7482993197279" width="110.83333333333333" height="15.714285714285715" />
</clipPath>
<clipPath id="d10">
<rect x="20" y="-459.0340136054421" width="110.83333333333333" height="15.714285714285715" />
</clipPath>
<clipPath id="d11">
<rect x="146.66666666666666" y="-531.6054421768707" width="110.83333333333333" height="32.85714285714286" />
</clipPath>
<clipPath id="d12">
<rect x="146.66666666666666" y="-502.74829931972783" width="110.83333333333333" height="30.0" />
</clipPath>
<clipPath id="d13">
<rect x="146.66666666666666" y="-476.74829931972783" width="110.83333333333333" height="30.0" />
</clipPath>
<clipPath id="d14">
<rect x="146.66666666666666" y="-450.7482993197279" width="110.83333333333333" height="21.42857142857143" />
</clipPath>
<clipPath id="d15">
<rect x="146.66666666666666" y="-433.31972789115645" width="110.83333333333333" height="21.42857142857143" />
</clipPath>
<clipPath id="d16">
<rect x="146.66666666666666" y="-415.89115646258495" width="110.83333333333333" height="18.57142857142857" />
</clipPath>
<clipPath id="d17">
<rect x="146.66666666666666" y="-401.31972789115645" width="110.83333333333333" height="15.714285714285715" />
</clipPath>
<clipPath id="d18">
<rect x="273.3333333333333" y="-531.6054421768707" width="110.83333333333333" height="32.85714285714286" />
</clipPath>
<clipPath id="d19">
<rect x="273.3333333333333" y="-502.74829931972783" width="110.83333333333333" height="30.0" />
</clipPath>
<clipPath id="d20">
<rect x="273.3333333333333" y="-476.74829931972783" width="110.83333333333333" height="30.0" />
</clipPath>
<clipPath id="d21">
<rect x="273.3333333333333" y="-450.7482993197279" width="110.83333333333333" height="27.142857142857142" />
</clipPath>
<clipPath id="d22">
<rect x="273.3333333333333" y="-427.6054421768708" width="110.83333333333333" height="27.142857142857142" />
</clipPath>
<clipPath id="d23">
<rect x="273.3333333333333" y="-404.4625850340136" width="110.83333333333333" height="27.142857142857142" />
</clipPath>
<clipPath id="d24">
<rect x="273.3333333333333" y="-381.31972789115645" width="110.83333333333333" height="27.142857142857142" />
</clipPath>
<clipPath id="d25">
<rect x="273.3333333333333" y="-358.17687074829934" width="110.83333333333333" height="27.142857142857142" />
</clipPath>
<clipPath id="d26">
<rect x="273.3333333333333" y="-335.0340136054422" width="110.83333333333333" height="27.142857142857142" />
</clipPath>
<clipPath id="d27">
<rect x="273.3333333333333" y="-311.89115646258506" width="110.83333333333333" height="27.142857142857142" />
</clipPath>
<clipPath id="d28">
<rect x="273.3333333333333" y="-288.7482993197279" width="110.83333333333333" height="27.142857142857142" />
</clipPath>
<clipPath id="d29">
<rect x="273.3333333333333" y="-265.6054421768707" width="110.83333333333333" height="27.142857142857142" />
</clipPath>
<clipPath id="d30">
<rect x="273.3333333333333" y="-242.46258503401356" width="110.83333333333333" height="21.42857142857143" />
</clipPath>
<clipPath id="d31">
<rect x="273.3333333333333" y="-225.0340136054421" width="110.83333333333333" height="21.42857142857143" />
</clipPath>
<clipPath id="d32">
<rect x="273.3333333333333" y="-207.60544217687067" width="110.83333333333333" height="18.57142857142857" />
</clipPath>
<clipPath id="d33">
<rect x="273.3333333333333" y="-193.0340136054421" width="110.83333333333333" height="15.714285714285715" />
</clipPath>
<clipPath id="d34">
<rect x="273.3333333333333" y="-181.3197278911564" width="110.83333333333333" height="15.714285714285715" />
</clipPath>
<clipPath id="d35">
<rect x="273.3333333333333" y="-169.60544217687067" width="110.83333333333333" height="15.714285714285715" />
</clipPath>
<clipPath id="d36">
<rect x="400.0" y="-531.6054421768707" width="110.83333333333333" height="32.85714285714286" />
</clipPath>
<clipPath id="d37">
<rect x="400.0" y="-502.74829931972783" width="110.83333333333333" height="30.0" />
</clipPath>
<clipPath id="d38">
<rect x="400.0" y="-476.74829931972783" width="110.83333333333333" height="30.0" />
</clipPath>
<clipPath id="d39">
<rect x="400.0" y="-450.7482993197279" width="110.83333333333333" height="27.142857142857142" />
</clipPath>
<clipPath id="d40">
<rect x="400.0" y="-427.6054421768708" width="110.83333333333333" height="27.142857142857142" />
</clipPath>
<clipPath id="d41">
<rect x="400.0" y="-404.4625850340136" width="110.83333333333333" height="27.142857142857142" />
</clipPath>
<clipPath id="d42">
<rect x="400.0" y="-381.31972789115645" width="110.83333333333333" height="27.142857142857142" />
</clipPath>
<clipPath id="d43">
<rect x="400.0" y="-358.17687074829934" width="110.83333333333333" height="27.142857142857142" />
</clipPath>
<clipPath id="d44">
<rect x="400.0" y="-335.0340136054422" width="110.83333333333333" height="27.142857142857142" />
</clipPath>
<clipPath id="d45">
<rect x="400.0" y="-311.89115646258506" width="110.83333333333333" height="27.142857142857142" />
</clipPath>
<clipPath id="d46">
<rect x="400.0" y="-288.7482993197279" width="110.83333333333333" height="27.142857142857142" />
</clipPath>
<clipPath id="d47">
<rect x="400.0" y="-265.6054421768707" width="110.83333333333333" height="27.142857142857142" />
</clipPath>
<clipPath id="d48">
<rect x="400.0" y="-242.46258503401356" width="110.83333333333333" height="24.285714285714285" />
</clipPath>
<clipPath id="d49">
<rect x="400.0" y="-222.17687074829928" width="110.83333333333333" height="24.285714285714285" />
</clipPath>
<clipPath id="d50">
<rect x="400.0" y="-201.891156462585" width="110.83333333333333" height="21.42857142857143" />
</clipPath>
<clipPath id="d51">
<rect x="400.0" y="-184.46258503401356" width="110.83333333333333" height="18.57142857142857" />
</clipPath>
<clipPath id="d52">
<rect x="526.6666666666666" y="-531.6054421768707" width="110.83333333333333" height="32.85714285714286" />
</clipPath>
<clipPath id="d53">
<rect x="526.6666666666666" y="-502.74829931972783" width="110.83333333333333" height="30.0" />
</clipPath>
<clipPath id="d54">
<rect x="526.6666666666666" y="-476.74829931972783" width="110.83333333333333" height="30.0" />
</clipPath>
<clipPath id="d55">
<rect x="526.6666666666666" y="-450.7482993197279" width="110.83333333333333" height="27.142857142857142" />
</clipPath>
<clipPath id="d56">
<rect x="526.6666666666666" y="-427.6054421768708" width="110.83333333333333" height="27.142857142857142" />
</clipPath>
<clipPath id="d57">
<rect x="526.6666666666666" y="-404.4625850340136" width="110.83333333333333" height="27.142857142857142" />
</clipPath>
<clipPath id="d58">
<rect x="526.6666666666666" y="-381.31972789115645" width="110.83333333333333" height="27.142857142857142" />
</clipPath>
<clipPath id="d59">
<rect x="526.6666666666666" y="-358.17687074829934" width="110.83333333333333" height="27.142857142857142" />
</clipPath>
<clipPath id="d60">
<rect x="526.6666666666666" y="-335.0340136054422" width="110.83333333333333" height="27.142857142857142" />
</clipPath>
<clipPath id="d61">
<rect x="526.6666666666666" y="-311.89115646258506" width="110.83333333333333" height="27.142857142857142" />
</clipPath>
<clipPath id="d62">
<rect x="526.6666666666666" y="-288.7482993197279" width="110.83333333333333" height="27.142857142857142" />
</clipPath>
<clipPath id="d63">
<rect x="526.6666666666666" y="-265.6054421768707" width="110.83333333333333" height="27.142857142857142" />
</clipPath>
<clipPath id="d64">
<rect x="526.6666666666666" y="-242.46258503401356" width="110.83333333333333" height="24.285714285714285" />
</clipPath>
<clipPath id="d65">
<rect x="526.6666666666666" y="-222.17687074829928" width="110.83333333333333" height="24.285714285714285" />
</clipPath>
<clipPath id="d66">
<rect x="526.6666666666666" y="-201.891156462585" width="110.83333333333333" height="21.42857142857143" />
</clipPath>
<clipPath id="d67">
<rect x="526.6666666666666" y="-184.46258503401356" width="110.83333333333333" height="21.42857142857143" />
</clipPath>
<clipPath id="d68">
<rect x="526.6666666666666" y="-167.0340136054421" width="110.83333333333333" height="21.42857142857143" />
</clipPath>
<clipPath id="d69">
<rect x="526.6666666666666" y="-149.60544217687067" width="110.83333333333333" height="21.42857142857143" />
</clipPath>
<clipPath id="d70">
<rect x="526.6666666666666" y="-132.17687074829922" width="110.83333333333333" height="21.42857142857143" />
</clipPath>
<clipPath id="d71">
<rect x="653.3333333333334" y="-531.6054421768707" width="110.83333333333333" height="32.85714285714286" />
</clipPath>
<clipPath id="d72">
<rect x="653.3333333333334" y="-502.74829931972783" width="110.83333333333333" height="30.0" />
</clipPath>
<clipPath id="d73">
<rect x="653.3333333333334" y="-476.74829931972783" width="110.83333333333333" height="30.0" />
</clipPath>
<clipPath id="d74">
<rect x="653.3333333333334" y="-450.7482993197279" width="110.83333333333333" height="27.142857142857142" />
</clipPath>
<clipPath id="d75">
<rect x="653.3333333333334" y="-427.6054421768708" width="110.83333333333333" height="27.142857142857142" />
</clipPath>
<clipPath id="d76">
<rect x="653.3333333333334" y="-404.4625850340136" width="110.83333333333333" height="27.142857142857142" />
</clipPath>
<clipPath id="d77">
<rect x="653.3333333333334" y="-381.31972789115645" width="110.83333333333333" height="27.142857142857142" />
</clipPath>
<clipPath id="d78">
<rect x="653.3333333333334" y="-358.17687074829934" width="110.83333333333333" height="27.142857142857142" />
</clipPath>
<clipPath id="d79">
<rect x="653.3333333333334" y="-335.0340136054422" width="110.83333333333333" height="27.142857142857142" />
</clipPath>
<clipPath id="d80">
<rect x="653.3333333333334" y="-311.89115646258506" width="110.83333333333333" height="27.142857142857142" />
</clipPath>
<clipPath id="d81">
<rect x="653.3333333333334" y="-288.7482993197279" width="110.83333333333333" height="27.142857142857142" />
</clipPath>
<clipPath id="d82">
<rect x="653.3333333333334" y="-265.6054421768707" width="110.83333333333333" height="27.142857142857142" />
</clipPath>
<clipPath id="d83">
<rect x="653.3333333333334" y="-242.46258503401356" width="110.83333333333333" height="24.285714285714285" />
</clipPath>
<clipPath id="d84">
<rect x="653.3333333333334" y="-222.17687074829928" width="110.83333333333333" height="24.285714285714285" />
</clipPath>
<clipPath id="d85">
<rect x="653.3333333333334" y="-201.891156462585" width="110.83333333333333" height="21.42857142857143" />
</clipPath>
<clipPath id="d86">
<rect x="653.3333333333334" y="-184.46258503401356" width="110.83333333333333" height="21.42857142857143" />
</clipPath>
<clipPath id="d87">
<rect x="653.3333333333334" y="-167.0340136054421" width="110.83333333333333" height="21.42857142857143" />
</clipPath>
<clipPath id="d88">
<rect x="653.3333333333334" y="-149.60544217687067" width="110.83333333333333" height="21.42857142857143" />
</clipPath>
<clipPath id="d89">
<rect x="653.3333333333334" y="-132.17687074829922" width="110.83333333333333" height="21.42857142857143" />
</clipPath>
</defs>
<rect x="0" y="-551.6054421768707" width="800" height="551.6054421768707" stroke-width="2" stroke="black" fill="white" />
<text x="20" y="-531.6054421768707" font-size="5" font-family="sans-serif" clip-path="url(#d0)" fill="black" dy="0em">2015-09-08</text>
<text x="146.66666666666666" y="-531.6054421768707" font-size="5" font-family="sans-serif" clip-path="url(#d1)" fill="black" dy="0em">2016-09-08</text>
<text x="273.3333333333333" y="-531.6054421768707" font-size="5" font-family="sans-serif" clip-path="url(#d2)" fill="black" dy="0em">2017-09-08</text>
<text x="400.0" y="-531.6054421768707" font-size="5" font-family="sans-serif" clip-path="url(#d3)" fill="black" dy="0em">2018-09-08</text>
<text x="526.6666666666666" y="-531.6054421768707" font-size="5" font-family="sans-serif" clip-path="url(#d4)" fill="black" dy="0em">2019-09-08</text>
<text x="653.3333333333334" y="-531.6054421768707" font-size="5" font-family="sans-serif" clip-path="url(#d5)" fill="black" dy="0em">2021-05-17</text>
<path d="M62.22222222222222,-502.74829931972783 L62.22222222222222,-527.6054421768707 L146.66666666666666,-527.6054421768707 L146.66666666666666,-502.74829931972783 Z" fill="#a1d99b" stroke="white" opacity="0.5" stroke-width="0.5" />
<path d="M188.88888888888889,-502.74829931972783 L188.88888888888889,-527.6054421768707 L273.3333333333333,-527.6054421768707 L273.3333333333333,-502.74829931972783 Z" fill="#a1d99b" stroke="white" opacity="0.5" stroke-width="0.5" />
<path d="M315.55555555555554,-502.74829931972783 L315.55555555555554,-527.6054421768707 L400.0,-527.6054421768707 L400.0,-502.74829931972783 Z" fill="#a1d99b" stroke="white" opacity="0.5" stroke-width="0.5" />
<path d="M442.22222222222223,-502.74829931972783 L442.22222222222223,-527.6054421768707 L526.6666666666666,-527.6054421768707 L526.6666666666666,-502.74829931972783 Z" fill="#a1d99b" stroke="white" opacity="0.5" stroke-width="0.5" />
<path d="M568.8888888888888,-502.74829931972783 L568.8888888888888,-527.6054421768707 L653.3333333333334,-527.6054421768707 L653.3333333333334,-502.74829931972783 Z" fill="#d9d9d9" stroke="white" opacity="0.5" stroke-width="0.5" />
<path d="M62.22222222222222,-485.31972789115645 L62.22222222222222,-498.7482993197279 Q72.22222222222223,-498.7482993197279,104.94444444444443,-472.7482993197279 T146.66666666666666,-446.7482993197279 L146.66666666666666,-433.31972789115645 Q136.66666666666666,-433.31972789115645,103.94444444444443,-459.31972789115645 T62.22222222222222,-485.31972789115645 Z" fill="#a1d99b" stroke="white" opacity="0.5" stroke-width="0.5" />
<path d="M188.88888888888889,-433.31972789115645 L188.88888888888889,-446.7482993197279 Q198.88888888888889,-446.7482993197279,231.6111111111111,-342.6054421768707 T273.3333333333333,-238.46258503401353 L273.3333333333333,-225.0340136054421 Q263.3333333333333,-225.0340136054421,230.6111111111111,-329.1768707482993 T188.88888888888889,-433.31972789115645 Z" fill="#a1d99b" stroke="white" opacity="0.5" stroke-width="0.5" />
<path d="M62.22222222222222,-470.74829931972783 L62.22222222222222,-481.3197278911564 Q72.22222222222223,-481.3197278911564,104.94444444444443,-446.60544217687067 T146.66666666666666,-411.89115646258495 L146.66666666666666,-401.3197278911564 Q136.66666666666666,-401.3197278911564,103.94444444444443,-436.0340136054421 T62.22222222222222,-470.74829931972783 Z" fill="#a1d99b" stroke="white" opacity="0.5" stroke-width="0.5" />
<path d="M188.88888888888889,-476.74829931972783 L188.88888888888889,-498.74829931972783 L273.3333333333333,-498.74829931972783 L273.3333333333333,-476.74829931972783 Z" fill="#a1d99b" stroke="white" opacity="0.5" stroke-width="0.5" />
<path d="M315.55555555555554,-476.74829931972783 L315.55555555555554,-498.74829931972783 L400.0,-498.74829931972783 L400.0,-476.74829931972783 Z" fill="#a1d99b" stroke="white" opacity="0.5" stroke-width="0.5" />
<path d="M442.22222222222223,-476.74829931972783 L442.22222222222223,-498.74829931972783 L526.6666666666666,-498.74829931972783 L526.6666666666666,-476.74829931972783 Z" fill="#a1d99b" stroke="white" opacity="0.5" stroke-width="0.5" />
<path d="M568.8888888888888,-476.74829931972783 L568.8888888888888,-498.74829931972783 L653.3333333333334,-498.74829931972783 L653.3333333333334,-476.74829931972783 Z" fill="#a1d99b" stroke="white" opacity="0.5" stroke-width="0.5" />
<path d="M188.88888888888889,-450.74829931972783 L188.88888888888889,-472.74829931972783 L273.3333333333333,-472.74829931972783 L273.3333333333333,-450.74829931972783 Z" fill="#a1d99b" stroke="white" opacity="0.5" stroke-width="0.5" />
<path d="M315.55555555555554,-450.74829931972783 L315.55555555555554,-472.74829931972783 L400.0,-472.74829931972783 L400.0,-450.74829931972783 Z" fill="#a1d99b" stroke="white" opacity="0.5" stroke-width="0.5" />
<path d="M442.22222222222223,-450.74829931972783 L442.22222222222223,-472.74829931972783 L526.6666666666666,-472.74829931972783 L526.6666666666666,-450.74829931972783 Z" fill="#a1d99b" stroke="white" opacity="0.5" stroke-width="0.5" />
<path d="M568.8888888888888,-450.74829931972783 L568.8888888888888,-472.74829931972783 L653.3333333333334,-472.74829931972783 L653.3333333333334,-450.74829931972783 Z" fill="#a1d99b" stroke="white" opacity="0.5" stroke-width="0.5" />
<path d="M188.88888888888889,-415.891156462585 L188.88888888888889,-429.31972789115645 Q198.88888888888889,-429.31972789115645,231.6111111111111,-325.1768707482993 T273.3333333333333,-221.03401360544208 L273.3333333333333,-207.60544217687067 Q263.3333333333333,-207.60544217687067,230.6111111111111,-311.74829931972783 T188.88888888888889,-415.891156462585 Z" fill="#a1d99b" stroke="white" opacity="0.5" stroke-width="0.5" />
<path d="M315.55555555555554,-207.60544217687067 L315.55555555555554,-221.03401360544208 Q325.55555555555554,-221.03401360544208,358.27777777777777,-209.46258503401353 T400.0,-197.89115646258497 L400.0,-184.46258503401356 Q390.0,-184.46258503401356,357.27777777777777,-196.0340136054421 T315.55555555555554,-207.60544217687067 Z" fill="#a1d99b" stroke="white" opacity="0.5" stroke-width="0.5" />
<path d="M315.55555555555554,-427.6054421768707 L315.55555555555554,-446.7482993197279 L400.0,-446.7482993197279 L400.0,-427.6054421768707 Z" fill="#a1d99b" stroke="white" opacity="0.5" stroke-width="0.5" />
<path d="M442.22222222222223,-427.6054421768707 L442.22222222222223,-446.7482993197279 L526.6666666666666,-446.7482993197279 L526.6666666666666,-427.6054421768707 Z" fill="#a1d99b" stroke="white" opacity="0.5" stroke-width="0.5" />
<path d="M568.8888888888888,-427.6054421768707 L568.8888888888888,-446.7482993197279 L653.3333333333334,-446.7482993197279 L653.3333333333334,-427.6054421768707 Z" fill="#a1d99b" stroke="white" opacity="0.5" stroke-width="0.5" />
<path d="M315.55555555555554,-404.4625850340136 L315.55555555555554,-423.6054421768708 L400.0,-423.6054421768708 L400.0,-404.4625850340136 Z" fill="#d9d9d9" stroke="white" opacity="0.5" stroke-width="0.5" />
<path d="M442.22222222222223,-404.4625850340136 L442.22222222222223,-423.6054421768708 L526.6666666666666,-423.6054421768708 L526.6666666666666,-404.4625850340136 Z" fill="#d9d9d9" stroke="white" opacity="0.5" stroke-width="0.5" />
<path d="M568.8888888888888,-404.4625850340136 L568.8888888888888,-423.6054421768708 L653.3333333333334,-423.6054421768708 L653.3333333333334,-404.4625850340136 Z" fill="#d9d9d9" stroke="white" opacity="0.5" stroke-width="0.5" />
<path d="M315.55555555555554,-381.31972789115645 L315.55555555555554,-400.4625850340136 L400.0,-400.4625850340136 L400.0,-381.31972789115645 Z" fill="#d9d9d9" stroke="white" opacity="0.5" stroke-width="0.5" />
<path d="M442.22222222222223,-381.31972789115645 L442.22222222222223,-400.4625850340136 L526.6666666666666,-400.4625850340136 L526.6666666666666,-381.31972789115645 Z" fill="#d9d9d9" stroke="white" opacity="0.5" stroke-width="0.5" />
<path d="M568.8888888888888,-381.31972789115645 L568.8888888888888,-400.4625850340136 L653.3333333333334,-400.4625850340136 L653.3333333333334,-381.31972789115645 Z" fill="#d9d9d9" stroke="white" opacity="0.5" stroke-width="0.5" />
<path d="M315.55555555555554,-358.1768707482993 L315.55555555555554,-377.31972789115645 L400.0,-377.31972789115645 L400.0,-358.1768707482993 Z" fill="#d9d9d9" stroke="white" opacity="0.5" stroke-width="0.5" />
<path d="M442.22222222222223,-358.1768707482993 L442.22222222222223,-377.31972789115645 L526.6666666666666,-377.31972789115645 L526.6666666666666,-358.1768707482993 Z" fill="#d9d9d9" stroke="white" opacity="0.5" stroke-width="0.5" />
<path d="M568.8888888888888,-358.1768707482993 L568.8888888888888,-377.31972789115645 L653.3333333333334,-377.31972789115645 L653.3333333333334,-358.1768707482993 Z" fill="#d9d9d9" stroke="white" opacity="0.5" stroke-width="0.5" />
<path d="M315.55555555555554,-335.03401360544217 L315.55555555555554,-354.17687074829934 L400.0,-354.17687074829934 L400.0,-335.03401360544217 Z" fill="#a1d99b" stroke="white" opacity="0.5" stroke-width="0.5" />
<path d="M442.22222222222223,-335.03401360544217 L442.22222222222223,-354.17687074829934 L526.6666666666666,-354.17687074829934 L526.6666666666666,-335.03401360544217 Z" fill="#a1d99b" stroke="white" opacity="0.5" stroke-width="0.5" />
<path d="M568.8888888888888,-335.03401360544217 L568.8888888888888,-354.17687074829934 L653.3333333333334,-354.17687074829934 L653.3333333333334,-335.03401360544217 Z" fill="#a1d99b" stroke="white" opacity="0.5" stroke-width="0.5" />
<path d="M315.55555555555554,-311.89115646258506 L315.55555555555554,-331.0340136054422 L400.0,-331.0340136054422 L400.0,-311.89115646258506 Z" fill="#d9d9d9" stroke="white" opacity="0.5" stroke-width="0.5" />
<path d="M442.22222222222223,-311.89115646258506 L442.22222222222223,-331.0340136054422 L526.6666666666666,-331.0340136054422 L526.6666666666666,-311.89115646258506 Z" fill="#d9d9d9" stroke="white" opacity="0.5" stroke-width="0.5" />
<path d="M568.8888888888888,-311.89115646258506 L568.8888888888888,-331.0340136054422 L653.3333333333334,-331.0340136054422 L653.3333333333334,-311.89115646258506 Z" fill="#d9d9d9" stroke="white" opacity="0.5" stroke-width="0.5" />
<path d="M315.55555555555554,-288.7482993197279 L315.55555555555554,-307.89115646258506 L400.0,-307.89115646258506 L400.0,-288.7482993197279 Z" fill="#d9d9d9" stroke="white" opacity="0.5" stroke-width="0.5" />
<path d="M442.22222222222223,-288.7482993197279 L442.22222222222223,-307.89115646258506 L526.6666666666666,-307.89115646258506 L526.6666666666666,-288.7482993197279 Z" fill="#d9d9d9" stroke="white" opacity="0.5" stroke-width="0.5" />
<path d="M568.8888888888888,-288.7482993197279 L568.8888888888888,-307.89115646258506 L653.3333333333334,-307.89115646258506 L653.3333333333334,-288.7482993197279 Z" fill="#d9d9d9" stroke="white" opacity="0.5" stroke-width="0.5" />
<path d="M315.55555555555554,-265.6054421768707 L315.55555555555554,-284.7482993197279 L400.0,-284.7482993197279 L400.0,-265.6054421768707 Z" fill="#d9d9d9" stroke="white" opacity="0.5" stroke-width="0.5" />
<path d="M442.22222222222223,-265.6054421768707 L442.22222222222223,-284.7482993197279 L526.6666666666666,-284.7482993197279 L526.6666666666666,-265.6054421768707 Z" fill="#d9d9d9" stroke="white" opacity="0.5" stroke-width="0.5" />
<path d="M568.8888888888888,-265.6054421768707 L568.8888888888888,-284.7482993197279 L653.3333333333334,-284.7482993197279 L653.3333333333334,-265.6054421768707 Z" fill="#d9d9d9" stroke="white" opacity="0.5" stroke-width="0.5" />
<path d="M315.55555555555554,-242.46258503401356 L315.55555555555554,-261.6054421768707 L400.0,-261.6054421768707 L400.0,-242.46258503401356 Z" fill="#d9d9d9" stroke="white" opacity="0.5" stroke-width="0.5" />
<path d="M442.22222222222223,-242.46258503401356 L442.22222222222223,-261.6054421768707 L526.6666666666666,-261.6054421768707 L526.6666666666666,-242.46258503401356 Z" fill="#d9d9d9" stroke="white" opacity="0.5" stroke-width="0.5" />
<path d="M568.8888888888888,-242.46258503401356 L568.8888888888888,-261.6054421768707 L653.3333333333334,-261.6054421768707 L653.3333333333334,-242.46258503401356 Z" fill="#d9d9d9" stroke="white" opacity="0.5" stroke-width="0.5" />
<path d="M315.55555555555554,-193.0340136054421 L315.55555555555554,-203.6054421768707 Q325.55555555555554,-203.6054421768707,358.27777777777777,-192.03401360544214 T400.0,-180.46258503401359 L400.0,-169.891156462585 Q390.0,-169.891156462585,357.27777777777777,-181.46258503401356 T315.55555555555554,-193.0340136054421 Z" fill="#d9d9d9" stroke="white" opacity="0.5" stroke-width="0.5" />
<path d="M442.22222222222223,-222.17687074829928 L442.22222222222223,-238.46258503401356 L526.6666666666666,-238.46258503401356 L526.6666666666666,-222.17687074829928 Z" fill="#a1d99b" stroke="white" opacity="0.5" stroke-width="0.5" />
<path d="M568.8888888888888,-222.17687074829928 L568.8888888888888,-238.46258503401356 L653.3333333333334,-238.46258503401356 L653.3333333333334,-222.17687074829928 Z" fill="#a1d99b" stroke="white" opacity="0.5" stroke-width="0.5" />
<path d="M442.22222222222223,-201.891156462585 L442.22222222222223,-218.17687074829928 L526.6666666666666,-218.17687074829928 L526.6666666666666,-201.891156462585 Z" fill="#a1d99b" stroke="white" opacity="0.5" stroke-width="0.5" />
<path d="M568.8888888888888,-201.891156462585 L568.8888888888888,-218.17687074829928 L653.3333333333334,-218.17687074829928 L653.3333333333334,-201.891156462585 Z" fill="#a1d99b" stroke="white" opacity="0.5" stroke-width="0.5" />
<path d="M568.8888888888888,-184.46258503401356 L568.8888888888888,-197.89115646258497 L653.3333333333334,-197.89115646258497 L653.3333333333334,-184.46258503401356 Z" fill="#a1d99b" stroke="white" opacity="0.5" stroke-width="0.5" />
<path d="M568.8888888888888,-167.0340136054421 L568.8888888888888,-180.46258503401353 L653.3333333333334,-180.46258503401353 L653.3333333333334,-167.0340136054421 Z" fill="#a1d99b" stroke="white" opacity="0.5" stroke-width="0.5" />
<path d="M568.8888888888888,-149.60544217687067 L568.8888888888888,-163.03401360544208 L653.3333333333334,-163.03401360544208 L653.3333333333334,-149.60544217687067 Z" fill="#a1d99b" stroke="white" opacity="0.5" stroke-width="0.5" />
<path d="M568.8888888888888,-132.17687074829922 L568.8888888888888,-145.60544217687064 L653.3333333333334,-145.60544217687064 L653.3333333333334,-132.17687074829922 Z" fill="#d9d9d9" stroke="white" opacity="0.5" stroke-width="0.5" />
<path d="M568.8888888888888,-114.74829931972778 L568.8888888888888,-128.1768707482992 L653.3333333333334,-128.1768707482992 L653.3333333333334,-114.74829931972778 Z" fill="#d9d9d9" stroke="white" opacity="0.5" stroke-width="0.5" />
<rect x="20" y="-527.6054421768707" width="42.22222222222222" height="24.857142857142858" fill="#4BA167" stroke="#4BA167" />
<text x="78.05555555555556" y="-512.6768707482993" font-size="5" font-family="sans-serif" fill="black" clip-path="url(#d6)" dy="0em">pymongo</text>
<rect x="20" y="-498.7482993197279" width="42.22222222222222" height="13.428571428571429" fill="#4BA167" stroke="#4BA167" />
<text x="78.05555555555556" y="-489.53401360544217" font-size="5" font-family="sans-serif" fill="black" clip-path="url(#d7)" dy="0em">jsondatabase</text>
<rect x="20" y="-481.3197278911564" width="42.22222222222222" height="10.571428571428571" fill="#4BA167" stroke="#4BA167" />
<text x="78.05555555555556" y="-473.5340136054421" font-size="5" font-family="sans-serif" fill="black" clip-path="url(#d8)" dy="0em">fuzzywuzzy</text>
<rect x="20" y="-466.7482993197279" width="42.22222222222222" height="7.714285714285714" fill="#4BA167" stroke="#4BA167" />
<text x="78.05555555555556" y="-460.391156462585" font-size="5" font-family="sans-serif" fill="black" clip-path="url(#d9)" dy="0em">requests</text>
<rect x="20" y="-455.0340136054421" width="42.22222222222222" height="7.714285714285714" fill="#4BA167" stroke="#4BA167" />
<text x="78.05555555555556" y="-448.6768707482992" font-size="5" font-family="sans-serif" fill="black" clip-path="url(#d10)" dy="0em">requests-oauthlib</text>
<rect x="146.66666666666666" y="-527.6054421768707" width="42.22222222222222" height="24.857142857142858" fill="#a1d99b" stroke="#a1d99b" />
<text x="204.72222222222223" y="-512.6768707482993" font-size="5" font-family="sans-serif" fill="black" clip-path="url(#d11)" dy="0em">pymongo</text>
<rect x="146.66666666666666" y="-498.74829931972783" width="42.22222222222222" height="22.0" fill="#4BA167" stroke="#4BA167" />
<text x="204.72222222222223" y="-485.24829931972783" font-size="5" font-family="sans-serif" fill="black" clip-path="url(#d12)" dy="0em">nltk</text>
<rect x="146.66666666666666" y="-472.74829931972783" width="42.22222222222222" height="22.0" fill="#4BA167" stroke="#4BA167" />
<text x="204.72222222222223" y="-459.24829931972783" font-size="5" font-family="sans-serif" fill="black" clip-path="url(#d13)" dy="0em">sqlalchemy</text>
<rect x="146.66666666666666" y="-446.7482993197279" width="42.22222222222222" height="13.428571428571429" fill="#a1d99b" stroke="#a1d99b" />
<text x="204.72222222222223" y="-437.53401360544217" font-size="5" font-family="sans-serif" fill="black" clip-path="url(#d14)" dy="0em">jsondatabase</text>
<rect x="146.66666666666666" y="-429.31972789115645" width="42.22222222222222" height="13.428571428571429" fill="#4BA167" stroke="#4BA167" />
<text x="204.72222222222223" y="-420.1054421768707" font-size="5" font-family="sans-serif" fill="black" clip-path="url(#d15)" dy="0em">python-twitter</text>
<rect x="146.66666666666666" y="-411.89115646258495" width="42.22222222222222" height="10.571428571428571" fill="#A04B83" stroke="#A04B83" />
<text x="204.72222222222223" y="-404.10544217687067" font-size="5" font-family="sans-serif" fill="black" clip-path="url(#d16)" dy="0em">fuzzywuzzy</text>
<rect x="146.66666666666666" y="-397.31972789115645" width="42.22222222222222" height="7.714285714285714" fill="#4BA167" stroke="#4BA167" />
<text x="204.72222222222223" y="-390.96258503401356" font-size="5" font-family="sans-serif" fill="black" clip-path="url(#d17)" dy="0em">textblob</text>
<rect x="273.3333333333333" y="-527.6054421768707" width="42.22222222222222" height="24.857142857142858" fill="#a1d99b" stroke="#a1d99b" />
<text x="331.38888888888886" y="-512.6768707482993" font-size="5" font-family="sans-serif" fill="black" clip-path="url(#d18)" dy="0em">pymongo</text>
<rect x="273.3333333333333" y="-498.74829931972783" width="42.22222222222222" height="22.0" fill="#a1d99b" stroke="#a1d99b" />
<text x="331.38888888888886" y="-485.24829931972783" font-size="5" font-family="sans-serif" fill="black" clip-path="url(#d19)" dy="0em">nltk</text>
<rect x="273.3333333333333" y="-472.74829931972783" width="42.22222222222222" height="22.0" fill="#a1d99b" stroke="#a1d99b" />
<text x="331.38888888888886" y="-459.24829931972783" font-size="5" font-family="sans-serif" fill="black" clip-path="url(#d20)" dy="0em">sqlalchemy</text>
<rect x="273.3333333333333" y="-446.7482993197279" width="42.22222222222222" height="19.142857142857142" fill="#4BA167" stroke="#4BA167" />
<text x="331.38888888888886" y="-434.6768707482993" font-size="5" font-family="sans-serif" fill="black" clip-path="url(#d21)" dy="0em">chatterbot-corpus</text>
<rect x="273.3333333333333" y="-423.6054421768708" width="42.22222222222222" height="19.142857142857142" fill="#4BA167" stroke="#4BA167" />
<text x="331.38888888888886" y="-411.53401360544217" font-size="5" font-family="sans-serif" fill="black" clip-path="url(#d22)" dy="0em">coveralls</text>
<rect x="273.3333333333333" y="-400.4625850340136" width="42.22222222222222" height="19.142857142857142" fill="#4BA167" stroke="#4BA167" />
<text x="331.38888888888886" y="-388.391156462585" font-size="5" font-family="sans-serif" fill="black" clip-path="url(#d23)" dy="0em">flake8</text>
<rect x="273.3333333333333" y="-377.31972789115645" width="42.22222222222222" height="19.142857142857142" fill="#4BA167" stroke="#4BA167" />
<text x="331.38888888888886" y="-365.24829931972783" font-size="5" font-family="sans-serif" fill="black" clip-path="url(#d24)" dy="0em">nose</text>
<rect x="273.3333333333333" y="-354.17687074829934" width="42.22222222222222" height="19.142857142857142" fill="#4BA167" stroke="#4BA167" />
<text x="331.38888888888886" y="-342.1054421768707" font-size="5" font-family="sans-serif" fill="black" clip-path="url(#d25)" dy="0em">python-dateutil</text>
<rect x="273.3333333333333" y="-331.0340136054422" width="42.22222222222222" height="19.142857142857142" fill="#4BA167" stroke="#4BA167" />
<text x="331.38888888888886" y="-318.9625850340136" font-size="5" font-family="sans-serif" fill="black" clip-path="url(#d26)" dy="0em">sphinx</text>
<rect x="273.3333333333333" y="-307.89115646258506" width="42.22222222222222" height="19.142857142857142" fill="#4BA167" stroke="#4BA167" />
<text x="331.38888888888886" y="-295.81972789115645" font-size="5" font-family="sans-serif" fill="black" clip-path="url(#d27)" dy="0em">sphinx_rtd_theme</text>
<rect x="273.3333333333333" y="-284.7482993197279" width="42.22222222222222" height="19.142857142857142" fill="#4BA167" stroke="#4BA167" />
<text x="331.38888888888886" y="-272.6768707482993" font-size="5" font-family="sans-serif" fill="black" clip-path="url(#d28)" dy="0em">twine</text>
<rect x="273.3333333333333" y="-261.6054421768707" width="42.22222222222222" height="19.142857142857142" fill="#4BA167" stroke="#4BA167" />
<text x="331.38888888888886" y="-249.53401360544214" font-size="5" font-family="sans-serif" fill="black" clip-path="url(#d29)" dy="0em">twython</text>
<rect x="273.3333333333333" y="-238.46258503401353" width="42.22222222222222" height="13.428571428571429" fill="#A04B83" stroke="#A04B83" />
<text x="331.38888888888886" y="-229.24829931972783" font-size="5" font-family="sans-serif" fill="black" clip-path="url(#d30)" dy="0em">jsondatabase</text>
<rect x="273.3333333333333" y="-221.03401360544208" width="42.22222222222222" height="13.428571428571429" fill="#a1d99b" stroke="#a1d99b" />
<text x="331.38888888888886" y="-211.8197278911564" font-size="5" font-family="sans-serif" fill="black" clip-path="url(#d31)" dy="0em">python-twitter</text>
<rect x="273.3333333333333" y="-203.6054421768707" width="42.22222222222222" height="10.571428571428571" fill="#4BA167" stroke="#4BA167" />
<text x="331.38888888888886" y="-195.8197278911564" font-size="5" font-family="sans-serif" fill="black" clip-path="url(#d32)" dy="0em">factory-boy</text>
<rect x="273.3333333333333" y="-189.0340136054421" width="42.22222222222222" height="7.714285714285714" fill="#4BA167" stroke="#4BA167" />
<text x="331.38888888888886" y="-182.67687074829925" font-size="5" font-family="sans-serif" fill="black" clip-path="url(#d33)" dy="0em">mock</text>
<rect x="273.3333333333333" y="-177.3197278911564" width="42.22222222222222" height="7.714285714285714" fill="#4BA167" stroke="#4BA167" />
<text x="331.38888888888886" y="-170.96258503401353" font-size="5" font-family="sans-serif" fill="black" clip-path="url(#d34)" dy="0em">nose-exclude</text>
<rect x="273.3333333333333" y="-165.60544217687067" width="42.22222222222222" height="7.714285714285714" fill="#4BA167" stroke="#4BA167" />
<text x="331.38888888888886" y="-159.2482993197278" font-size="5" font-family="sans-serif" fill="black" clip-path="url(#d35)" dy="0em">pip</text>
<rect x="400.0" y="-527.6054421768707" width="42.22222222222222" height="24.857142857142858" fill="#a1d99b" stroke="#a1d99b" />
<text x="458.05555555555554" y="-512.6768707482993" font-size="5" font-family="sans-serif" fill="black" clip-path="url(#d36)" dy="0em">pymongo</text>
<rect x="400.0" y="-498.74829931972783" width="42.22222222222222" height="22.0" fill="#a1d99b" stroke="#a1d99b" />
<text x="458.05555555555554" y="-485.24829931972783" font-size="5" font-family="sans-serif" fill="black" clip-path="url(#d37)" dy="0em">nltk</text>
<rect x="400.0" y="-472.74829931972783" width="42.22222222222222" height="22.0" fill="#a1d99b" stroke="#a1d99b" />
<text x="458.05555555555554" y="-459.24829931972783" font-size="5" font-family="sans-serif" fill="black" clip-path="url(#d38)" dy="0em">sqlalchemy</text>
<rect x="400.0" y="-446.7482993197279" width="42.22222222222222" height="19.142857142857142" fill="#a1d99b" stroke="#a1d99b" />
<text x="458.05555555555554" y="-434.6768707482993" font-size="5" font-family="sans-serif" fill="black" clip-path="url(#d39)" dy="0em">chatterbot-corpus</text>
<rect x="400.0" y="-423.6054421768708" width="42.22222222222222" height="19.142857142857142" fill="#d9d9d9" stroke="#d9d9d9" />
<text x="458.05555555555554" y="-411.53401360544217" font-size="5" font-family="sans-serif" fill="black" clip-path="url(#d40)" dy="0em">coveralls</text>
<rect x="400.0" y="-400.4625850340136" width="42.22222222222222" height="19.142857142857142" fill="#d9d9d9" stroke="#d9d9d9" />
<text x="458.05555555555554" y="-388.391156462585" font-size="5" font-family="sans-serif" fill="black" clip-path="url(#d41)" dy="0em">flake8</text>
<rect x="400.0" y="-377.31972789115645" width="42.22222222222222" height="19.142857142857142" fill="#d9d9d9" stroke="#d9d9d9" />
<text x="458.05555555555554" y="-365.24829931972783" font-size="5" font-family="sans-serif" fill="black" clip-path="url(#d42)" dy="0em">nose</text>
<rect x="400.0" y="-354.17687074829934" width="42.22222222222222" height="19.142857142857142" fill="#a1d99b" stroke="#a1d99b" />
<text x="458.05555555555554" y="-342.1054421768707" font-size="5" font-family="sans-serif" fill="black" clip-path="url(#d43)" dy="0em">python-dateutil</text>
<rect x="400.0" y="-331.0340136054422" width="42.22222222222222" height="19.142857142857142" fill="#d9d9d9" stroke="#d9d9d9" />
<text x="458.05555555555554" y="-318.9625850340136" font-size="5" font-family="sans-serif" fill="black" clip-path="url(#d44)" dy="0em">sphinx</text>
<rect x="400.0" y="-307.89115646258506" width="42.22222222222222" height="19.142857142857142" fill="#d9d9d9" stroke="#d9d9d9" />
<text x="458.05555555555554" y="-295.81972789115645" font-size="5" font-family="sans-serif" fill="black" clip-path="url(#d45)" dy="0em">sphinx_rtd_theme</text>
<rect x="400.0" y="-284.7482993197279" width="42.22222222222222" height="19.142857142857142" fill="#d9d9d9" stroke="#d9d9d9" />
<text x="458.05555555555554" y="-272.6768707482993" font-size="5" font-family="sans-serif" fill="black" clip-path="url(#d46)" dy="0em">twine</text>
<rect x="400.0" y="-261.6054421768707" width="42.22222222222222" height="19.142857142857142" fill="#d9d9d9" stroke="#d9d9d9" />
<text x="458.05555555555554" y="-249.53401360544214" font-size="5" font-family="sans-serif" fill="black" clip-path="url(#d47)" dy="0em">twython</text>
<rect x="400.0" y="-238.46258503401356" width="42.22222222222222" height="16.285714285714285" fill="#4BA167" stroke="#4BA167" />
<text x="458.05555555555554" y="-227.81972789115642" font-size="5" font-family="sans-serif" fill="black" clip-path="url(#d48)" dy="0em">mathparse</text>
<rect x="400.0" y="-218.17687074829928" width="42.22222222222222" height="16.285714285714285" fill="#4BA167" stroke="#4BA167" />
<text x="458.05555555555554" y="-207.53401360544214" font-size="5" font-family="sans-serif" fill="black" clip-path="url(#d49)" dy="0em">pint</text>
<rect x="400.0" y="-197.89115646258497" width="42.22222222222222" height="13.428571428571429" fill="#A04B83" stroke="#A04B83" />
<text x="458.05555555555554" y="-188.67687074829928" font-size="5" font-family="sans-serif" fill="black" clip-path="url(#d50)" dy="0em">python-twitter</text>
<rect x="400.0" y="-180.46258503401359" width="42.22222222222222" height="10.571428571428571" fill="#A04B83" stroke="#A04B83" />
<text x="458.05555555555554" y="-172.67687074829928" font-size="5" font-family="sans-serif" fill="black" clip-path="url(#d51)" dy="0em">factory-boy</text>
<rect x="526.6666666666666" y="-527.6054421768707" width="42.22222222222222" height="24.857142857142858" fill="#d9d9d9" stroke="#d9d9d9" />
<text x="584.7222222222222" y="-512.6768707482993" font-size="5" font-family="sans-serif" fill="black" clip-path="url(#d52)" dy="0em">pymongo</text>
<rect x="526.6666666666666" y="-498.74829931972783" width="42.22222222222222" height="22.0" fill="#a1d99b" stroke="#a1d99b" />
<text x="584.7222222222222" y="-485.24829931972783" font-size="5" font-family="sans-serif" fill="black" clip-path="url(#d53)" dy="0em">nltk</text>
<rect x="526.6666666666666" y="-472.74829931972783" width="42.22222222222222" height="22.0" fill="#a1d99b" stroke="#a1d99b" />
<text x="584.7222222222222" y="-459.24829931972783" font-size="5" font-family="sans-serif" fill="black" clip-path="url(#d54)" dy="0em">sqlalchemy</text>
<rect x="526.6666666666666" y="-446.7482993197279" width="42.22222222222222" height="19.142857142857142" fill="#a1d99b" stroke="#a1d99b" />
<text x="584.7222222222222" y="-434.6768707482993" font-size="5" font-family="sans-serif" fill="black" clip-path="url(#d55)" dy="0em">chatterbot-corpus</text>
<rect x="526.6666666666666" y="-423.6054421768708" width="42.22222222222222" height="19.142857142857142" fill="#d9d9d9" stroke="#d9d9d9" />
<text x="584.7222222222222" y="-411.53401360544217" font-size="5" font-family="sans-serif" fill="black" clip-path="url(#d56)" dy="0em">coveralls</text>
<rect x="526.6666666666666" y="-400.4625850340136" width="42.22222222222222" height="19.142857142857142" fill="#d9d9d9" stroke="#d9d9d9" />
<text x="584.7222222222222" y="-388.391156462585" font-size="5" font-family="sans-serif" fill="black" clip-path="url(#d57)" dy="0em">flake8</text>
<rect x="526.6666666666666" y="-377.31972789115645" width="42.22222222222222" height="19.142857142857142" fill="#d9d9d9" stroke="#d9d9d9" />
<text x="584.7222222222222" y="-365.24829931972783" font-size="5" font-family="sans-serif" fill="black" clip-path="url(#d58)" dy="0em">nose</text>
<rect x="526.6666666666666" y="-354.17687074829934" width="42.22222222222222" height="19.142857142857142" fill="#a1d99b" stroke="#a1d99b" />
<text x="584.7222222222222" y="-342.1054421768707" font-size="5" font-family="sans-serif" fill="black" clip-path="url(#d59)" dy="0em">python-dateutil</text>
<rect x="526.6666666666666" y="-331.0340136054422" width="42.22222222222222" height="19.142857142857142" fill="#d9d9d9" stroke="#d9d9d9" />
<text x="584.7222222222222" y="-318.9625850340136" font-size="5" font-family="sans-serif" fill="black" clip-path="url(#d60)" dy="0em">sphinx</text>
<rect x="526.6666666666666" y="-307.89115646258506" width="42.22222222222222" height="19.142857142857142" fill="#d9d9d9" stroke="#d9d9d9" />
<text x="584.7222222222222" y="-295.81972789115645" font-size="5" font-family="sans-serif" fill="black" clip-path="url(#d61)" dy="0em">sphinx_rtd_theme</text>
<rect x="526.6666666666666" y="-284.7482993197279" width="42.22222222222222" height="19.142857142857142" fill="#d9d9d9" stroke="#d9d9d9" />
<text x="584.7222222222222" y="-272.6768707482993" font-size="5" font-family="sans-serif" fill="black" clip-path="url(#d62)" dy="0em">twine</text>
<rect x="526.6666666666666" y="-261.6054421768707" width="42.22222222222222" height="19.142857142857142" fill="#d9d9d9" stroke="#d9d9d9" />
<text x="584.7222222222222" y="-249.53401360544214" font-size="5" font-family="sans-serif" fill="black" clip-path="url(#d63)" dy="0em">twython</text>
<rect x="526.6666666666666" y="-238.46258503401356" width="42.22222222222222" height="16.285714285714285" fill="#a1d99b" stroke="#a1d99b" />
<text x="584.7222222222222" y="-227.81972789115642" font-size="5" font-family="sans-serif" fill="black" clip-path="url(#d64)" dy="0em">mathparse</text>
<rect x="526.6666666666666" y="-218.17687074829928" width="42.22222222222222" height="16.285714285714285" fill="#a1d99b" stroke="#a1d99b" />
<text x="584.7222222222222" y="-207.53401360544214" font-size="5" font-family="sans-serif" fill="black" clip-path="url(#d65)" dy="0em">pint</text>
<rect x="526.6666666666666" y="-197.89115646258497" width="42.22222222222222" height="13.428571428571429" fill="#4BA167" stroke="#4BA167" />
<text x="584.7222222222222" y="-188.67687074829928" font-size="5" font-family="sans-serif" fill="black" clip-path="url(#d66)" dy="0em">pytz</text>
<rect x="526.6666666666666" y="-180.46258503401353" width="42.22222222222222" height="13.428571428571429" fill="#4BA167" stroke="#4BA167" />
<text x="584.7222222222222" y="-171.24829931972783" font-size="5" font-family="sans-serif" fill="black" clip-path="url(#d67)" dy="0em">pyyaml</text>
<rect x="526.6666666666666" y="-163.03401360544208" width="42.22222222222222" height="13.428571428571429" fill="#4BA167" stroke="#4BA167" />
<text x="584.7222222222222" y="-153.8197278911564" font-size="5" font-family="sans-serif" fill="black" clip-path="url(#d68)" dy="0em">spacy</text>
<rect x="526.6666666666666" y="-145.60544217687064" width="42.22222222222222" height="13.428571428571429" fill="#4BA167" stroke="#4BA167" />
<text x="584.7222222222222" y="-136.39115646258495" font-size="5" font-family="sans-serif" fill="black" clip-path="url(#d69)" dy="0em">spacy_de_core_news_sm-2.1.0</text>
<rect x="526.6666666666666" y="-128.1768707482992" width="42.22222222222222" height="13.428571428571429" fill="#4BA167" stroke="#4BA167" />
<text x="584.7222222222222" y="-118.96258503401349" font-size="5" font-family="sans-serif" fill="black" clip-path="url(#d70)" dy="0em">spacy_en_core_web_sm-2.1.0</text>
<rect x="653.3333333333334" y="-527.6054421768707" width="42.22222222222222" height="24.857142857142858" fill="#d9d9d9" stroke="#d9d9d9" />
<text x="711.3888888888889" y="-512.6768707482993" font-size="5" font-family="sans-serif" fill="black" clip-path="url(#d71)" dy="0em">pymongo</text>
<rect x="653.3333333333334" y="-498.74829931972783" width="42.22222222222222" height="22.0" fill="#d9d9d9" stroke="#d9d9d9" />
<text x="711.3888888888889" y="-485.24829931972783" font-size="5" font-family="sans-serif" fill="black" clip-path="url(#d72)" dy="0em">nltk</text>
<rect x="653.3333333333334" y="-472.74829931972783" width="42.22222222222222" height="22.0" fill="#a1d99b" stroke="#a1d99b" />
<text x="711.3888888888889" y="-459.24829931972783" font-size="5" font-family="sans-serif" fill="black" clip-path="url(#d73)" dy="0em">sqlalchemy</text>
<rect x="653.3333333333334" y="-446.7482993197279" width="42.22222222222222" height="19.142857142857142" fill="#d9d9d9" stroke="#d9d9d9" />
<text x="711.3888888888889" y="-434.6768707482993" font-size="5" font-family="sans-serif" fill="black" clip-path="url(#d74)" dy="0em">chatterbot-corpus</text>
<rect x="653.3333333333334" y="-423.6054421768708" width="42.22222222222222" height="19.142857142857142" fill="#d9d9d9" stroke="#d9d9d9" />
<text x="711.3888888888889" y="-411.53401360544217" font-size="5" font-family="sans-serif" fill="black" clip-path="url(#d75)" dy="0em">coveralls</text>
<rect x="653.3333333333334" y="-400.4625850340136" width="42.22222222222222" height="19.142857142857142" fill="#d9d9d9" stroke="#d9d9d9" />
<text x="711.3888888888889" y="-388.391156462585" font-size="5" font-family="sans-serif" fill="black" clip-path="url(#d76)" dy="0em">flake8</text>
<rect x="653.3333333333334" y="-377.31972789115645" width="42.22222222222222" height="19.142857142857142" fill="#d9d9d9" stroke="#d9d9d9" />
<text x="711.3888888888889" y="-365.24829931972783" font-size="5" font-family="sans-serif" fill="black" clip-path="url(#d77)" dy="0em">nose</text>
<rect x="653.3333333333334" y="-354.17687074829934" width="42.22222222222222" height="19.142857142857142" fill="#a1d99b" stroke="#a1d99b" />
<text x="711.3888888888889" y="-342.1054421768707" font-size="5" font-family="sans-serif" fill="black" clip-path="url(#d78)" dy="0em">python-dateutil</text>
<rect x="653.3333333333334" y="-331.0340136054422" width="42.22222222222222" height="19.142857142857142" fill="#d9d9d9" stroke="#d9d9d9" />
<text x="711.3888888888889" y="-318.9625850340136" font-size="5" font-family="sans-serif" fill="black" clip-path="url(#d79)" dy="0em">sphinx</text>
<rect x="653.3333333333334" y="-307.89115646258506" width="42.22222222222222" height="19.142857142857142" fill="#d9d9d9" stroke="#d9d9d9" />
<text x="711.3888888888889" y="-295.81972789115645" font-size="5" font-family="sans-serif" fill="black" clip-path="url(#d80)" dy="0em">sphinx_rtd_theme</text>
<rect x="653.3333333333334" y="-284.7482993197279" width="42.22222222222222" height="19.142857142857142" fill="#d9d9d9" stroke="#d9d9d9" />
<text x="711.3888888888889" y="-272.6768707482993" font-size="5" font-family="sans-serif" fill="black" clip-path="url(#d81)" dy="0em">twine</text>
<rect x="653.3333333333334" y="-261.6054421768707" width="42.22222222222222" height="19.142857142857142" fill="#d9d9d9" stroke="#d9d9d9" />
<text x="711.3888888888889" y="-249.53401360544214" font-size="5" font-family="sans-serif" fill="black" clip-path="url(#d82)" dy="0em">twython</text>
<rect x="653.3333333333334" y="-238.46258503401356" width="42.22222222222222" height="16.285714285714285" fill="#a1d99b" stroke="#a1d99b" />
<text x="711.3888888888889" y="-227.81972789115642" font-size="5" font-family="sans-serif" fill="black" clip-path="url(#d83)" dy="0em">mathparse</text>
<rect x="653.3333333333334" y="-218.17687074829928" width="42.22222222222222" height="16.285714285714285" fill="#d9d9d9" stroke="#d9d9d9" />
<text x="711.3888888888889" y="-207.53401360544214" font-size="5" font-family="sans-serif" fill="black" clip-path="url(#d84)" dy="0em">pint</text>
<rect x="653.3333333333334" y="-197.89115646258497" width="42.22222222222222" height="13.428571428571429" fill="#a1d99b" stroke="#a1d99b" />
<text x="711.3888888888889" y="-188.67687074829928" font-size="5" font-family="sans-serif" fill="black" clip-path="url(#d85)" dy="0em">pytz</text>
<rect x="653.3333333333334" y="-180.46258503401353" width="42.22222222222222" height="13.428571428571429" fill="#d9d9d9" stroke="#d9d9d9" />
<text x="711.3888888888889" y="-171.24829931972783" font-size="5" font-family="sans-serif" fill="black" clip-path="url(#d86)" dy="0em">pyyaml</text>
<rect x="653.3333333333334" y="-163.03401360544208" width="42.22222222222222" height="13.428571428571429" fill="#d9d9d9" stroke="#d9d9d9" />
<text x="711.3888888888889" y="-153.8197278911564" font-size="5" font-family="sans-serif" fill="black" clip-path="url(#d87)" dy="0em">spacy</text>
<rect x="653.3333333333334" y="-145.60544217687064" width="42.22222222222222" height="13.428571428571429" fill="#d9d9d9" stroke="#d9d9d9" />
<text x="711.3888888888889" y="-136.39115646258495" font-size="5" font-family="sans-serif" fill="black" clip-path="url(#d88)" dy="0em">spacy_de_core_news_sm-2.1.0</text>
<rect x="653.3333333333334" y="-128.1768707482992" width="42.22222222222222" height="13.428571428571429" fill="#d9d9d9" stroke="#d9d9d9" />
<text x="711.3888888888889" y="-118.96258503401349" font-size="5" font-family="sans-serif" fill="black" clip-path="url(#d89)" dy="0em">spacy_en_core_web_sm-2.1.0</text>
<text x="20" y="-72.12244897959178" font-size="5" font-family="sans-serif" fill="black" dy="0em">Legend</text>
<rect x="20" y="-62.12244897959177" width="42.22222222222222" height="17.374149659863924" fill="#a1d99b" stroke="#a1d99b" />
<text x="72.77777777777777" y="-50.93537414965981" font-size="5" fill="black" dy="0em">A_Requirements</text>
<rect x="20" y="-39.74829931972785" width="42.22222222222222" height="17.374149659863924" fill="#d9d9d9" stroke="#d9d9d9" />
<text x="72.77777777777777" y="-28.561224489795883" font-size="5" fill="black" dy="0em">B_Developers Requirements</text>
</svg>